<svg width="79" height="25" viewBox="0 0 79 25" fill="none" xmlns="http://www.w3.org/2000/svg">
<path d="M78.4999 9.5119C78.5064 9.23584 78.288 9.00671 78.0119 9.00014L73.5132 8.89303C73.2371 8.88646 73.008 9.10492 73.0014 9.38099C72.9948 9.65705 73.2133 9.88617 73.4894 9.89275L77.4882 9.98796L77.393 13.9868C77.3865 14.2629 77.6049 14.492 77.881 14.4986C78.1571 14.5052 78.3862 14.2867 78.3927 14.0106L78.4999 9.5119ZM0.534717 1.18306C6.62438 16.661 20.7068 23.9911 35.9085 24.8742C51.0978 25.7565 67.4867 20.2152 78.345 9.86187L77.655 9.13813C67.0133 19.2848 50.9022 24.7435 35.9665 23.8758C21.0432 23.0089 7.37562 15.839 1.46528 0.816938L0.534717 1.18306Z" fill="white"/>
</svg>
