<svg width="63" height="47" viewBox="0 0 63 47" fill="none" xmlns="http://www.w3.org/2000/svg">
<path d="M8.99585 0.935723C8.96035 0.661872 8.70957 0.468649 8.43572 0.504149L3.97306 1.08264C3.69921 1.11814 3.50599 1.36892 3.54149 1.64277C3.57699 1.91662 3.82776 2.10985 4.10161 2.07435L8.06842 1.56013L8.58264 5.52694C8.61814 5.80079 8.86892 5.99401 9.14277 5.95851C9.41662 5.92301 9.60984 5.67223 9.57435 5.39838L8.99585 0.935723ZM63 46C42.2813 46 22.9026 42.2511 11.6518 34.7711C6.03859 31.0392 2.50137 26.4161 1.76117 20.9099C1.02001 15.3966 3.06572 8.87223 8.89607 1.30517L8.10393 0.694831C2.18429 8.37777 -0.0199944 15.1659 0.770087 21.0432C1.56114 26.9276 5.33641 31.7733 11.0982 35.6039C22.5974 43.2489 42.2186 47 63 47V46Z" fill="white"/>
</svg>
