<svg width="120" height="24" viewBox="0 0 120 24" fill="none" xmlns="http://www.w3.org/2000/svg">
<path d="M0.948868 1.00262C0.674173 1.03086 0.474382 1.27644 0.502621 1.55113L0.962813 6.02754C0.991052 6.30223 1.23663 6.50203 1.51132 6.47379C1.78602 6.44555 1.98581 6.19997 1.95757 5.92528L1.54851 1.94625L5.52754 1.53719C5.80223 1.50895 6.00203 1.26337 5.97379 0.988676C5.94555 0.713982 5.69997 0.51419 5.42528 0.54243L0.948868 1.00262ZM118.684 1.11214C99.107 17.0396 48.2513 39.2972 1.31554 1.11214L0.684456 1.88786C48.1487 40.5028 99.5597 17.9604 119.316 1.88786L118.684 1.11214Z" fill="white"/>
</svg>
