<svg width="162" height="33" viewBox="0 0 162 33" fill="none" xmlns="http://www.w3.org/2000/svg">
<path d="M159.973 0.837354C159.883 0.57623 159.598 0.437366 159.337 0.527193L155.082 1.991C154.821 2.08083 154.682 2.36533 154.772 2.62646C154.862 2.88758 155.146 3.02645 155.407 2.93662L159.19 1.63545L160.491 5.41791C160.581 5.67903 160.865 5.8179 161.126 5.72807C161.388 5.63824 161.526 5.35374 161.437 5.09262L159.973 0.837354ZM0.671911 8.3773C9.37586 15.946 22.3935 21.9097 37.3067 25.9513C52.2278 29.9951 69.0857 32.1253 85.5038 32C101.919 31.8747 117.919 29.4943 131.115 24.4989C144.306 19.5051 154.748 11.8762 159.949 1.21932L159.051 0.780683C154.002 11.1238 143.819 18.6199 130.76 23.5636C117.706 28.5057 101.831 30.8753 85.4962 31C69.1643 31.1247 52.3972 29.0049 37.5683 24.9862C22.7316 20.9653 9.87414 15.054 1.32809 7.6227L0.671911 8.3773Z" fill="white"/>
</svg>
