<svg width="29" height="29" viewBox="0 0 29 29" fill="none" xmlns="http://www.w3.org/2000/svg">
<path fill-rule="evenodd" clip-rule="evenodd" d="M21.6161 0.0524661C25.2365 0.608097 27.8471 3.20003 28.4269 6.81452L28.4783 7.13514L28.4863 14.0464C28.4947 21.3354 28.4957 21.2545 28.3849 21.9092C27.7985 25.3735 25.0447 27.9907 21.4973 28.4553C21.1475 28.5011 7.33589 28.5011 6.98607 28.4553C3.29027 27.9713 0.508998 25.1944 0.0356606 21.5158C-0.0118869 21.1463 -0.0118869 7.35027 0.0356606 6.98077C0.522654 3.1959 3.48024 0.348225 7.27107 0.0142052C7.66943 -0.0208973 21.3763 0.0156536 21.6161 0.0524661ZM23.3431 3.22872C22.1733 3.53517 21.7786 5.00011 22.636 5.853C23.5003 6.71285 24.9613 6.31489 25.2624 5.13755C25.5569 3.98611 24.4925 2.92757 23.3431 3.22872ZM13.7073 6.35569C8.09601 6.71546 4.62143 12.8272 7.18831 17.8225C10.0369 23.3659 17.8239 23.6338 21.0318 18.2988C24.2981 12.8665 20.0555 5.94869 13.7073 6.35569ZM14.8758 9.53461C18.3899 9.99004 20.1839 14.107 18.125 16.9914C16.0232 19.9362 11.5359 19.5704 9.96646 16.3264C8.31683 12.9166 11.1139 9.04702 14.8758 9.53461Z" fill="white"/>
</svg>
