<svg width="76" height="48" viewBox="0 0 76 48" fill="none" xmlns="http://www.w3.org/2000/svg">
<rect x="8.72149" y="0.324571" width="71.0081" height="22.7706" rx="11.3853" transform="rotate(21.6392 8.72149 0.324571)" stroke="white" stroke-width="0.5"/>
<path d="M14.6561 12.8572C14.9281 12.8528 15.2129 12.8395 15.5105 12.8173C15.8194 12.7903 16.1234 12.752 16.4226 12.7024C16.7249 12.6448 17.0167 12.5784 17.298 12.5032C17.5906 12.4231 17.8621 12.3253 18.1127 12.21L19.3701 12.7068L16.0599 21.0856L14.2584 20.3739L16.642 14.3406C16.3365 14.4063 16.0075 14.4487 15.6551 14.4679C15.306 14.4791 14.9712 14.4773 14.6509 14.4626L14.6561 12.8572ZM23.7489 21.2719C23.8413 21.0382 23.8701 20.8119 23.8354 20.5932C23.8038 20.3664 23.683 20.1416 23.4728 19.9188C23.2627 19.696 22.9527 19.4664 22.5429 19.2299C22.1331 18.9935 21.5977 18.7447 20.9368 18.4836C21.3216 17.769 21.6951 17.0359 22.0572 16.2844C22.4194 15.5329 22.7503 14.825 23.05 14.1606L27.584 15.9519L26.9869 17.4633L23.9643 16.2691C23.8335 16.5529 23.7019 16.827 23.5694 17.0915C23.4482 17.3511 23.3357 17.5769 23.2319 17.7689C24.3769 18.3144 25.1335 18.9349 25.5018 19.6301C25.8813 20.3206 25.9055 21.0849 25.5743 21.9232C25.4215 22.3101 25.2112 22.6417 24.9437 22.9181C24.6761 23.1944 24.3575 23.3993 23.9879 23.5329C23.6183 23.6664 23.1969 23.7189 22.7236 23.6903C22.2584 23.665 21.7477 23.5424 21.1915 23.3227C20.9739 23.2367 20.7505 23.1298 20.5215 23.002C20.2973 22.8855 20.0819 22.7585 19.8753 22.6209C19.6736 22.4947 19.4936 22.3723 19.3354 22.2539C19.1772 22.1355 19.0592 22.033 18.9816 21.9464L19.8956 20.5882C20.0621 20.7565 20.2931 20.9502 20.5885 21.1695C20.8871 21.3806 21.2662 21.577 21.7256 21.7585C22.2818 21.9782 22.7278 22.0286 23.0636 21.9097C23.4027 21.7828 23.6311 21.5702 23.7489 21.2719ZM37.0424 24.5111C36.4851 25.9216 35.7868 26.8991 34.9474 27.4434C34.1192 27.9828 33.2336 28.0663 32.2905 27.6937C31.3475 27.3211 30.754 26.6533 30.5101 25.6903C30.2775 24.7225 30.4398 23.5333 30.9971 22.1227C31.2741 21.4214 31.5879 20.8279 31.9382 20.342C32.2967 19.8592 32.6822 19.485 33.0946 19.2193C33.5071 18.9536 33.937 18.7973 34.3842 18.7504C34.8314 18.7034 35.2847 18.7707 35.7441 18.9522C36.6872 19.3248 37.2751 19.995 37.5077 20.9628C37.7516 21.9258 37.5965 23.1086 37.0424 24.5111ZM35.2046 23.785C35.3702 23.3659 35.4997 22.9791 35.5932 22.6246C35.6898 22.2621 35.7431 21.9384 35.7532 21.6535C35.7633 21.3686 35.7188 21.1274 35.6198 20.9298C35.5208 20.7323 35.3584 20.5889 35.1327 20.4998C34.907 20.4106 34.6905 20.4043 34.4832 20.4808C34.284 20.5605 34.0867 20.7062 33.8912 20.9179C33.7039 21.1327 33.5216 21.4055 33.3443 21.7361C33.1703 22.0588 33.0004 22.4296 32.8349 22.8488C32.6693 23.2679 32.5381 23.6587 32.4415 24.0213C32.3449 24.3838 32.2915 24.7075 32.2815 24.9924C32.2795 25.2805 32.324 25.5217 32.4149 25.716C32.5139 25.9136 32.6763 26.0569 32.902 26.1461C33.1277 26.2353 33.3442 26.2416 33.5514 26.1651C33.7587 26.0885 33.9561 25.9429 34.1434 25.728C34.3308 25.5132 34.5131 25.2404 34.6904 24.9097C34.8676 24.5791 35.039 24.2042 35.2046 23.785ZM44.2769 27.3693C43.7196 28.7799 43.0213 29.7573 42.1819 30.3016C41.3537 30.8411 40.4681 30.9245 39.5251 30.5519C38.582 30.1793 37.9885 29.5115 37.7446 28.5486C37.512 27.5807 37.6743 26.3915 38.2316 24.9809C38.5087 24.2797 38.8224 23.6861 39.1728 23.2002C39.5312 22.7174 39.9167 22.3432 40.3292 22.0775C40.7416 21.8119 41.1715 21.6555 41.6187 21.6086C42.0659 21.5616 42.5192 21.6289 42.9787 21.8104C43.9217 22.183 44.5096 22.8532 44.7422 23.8211C44.9861 24.784 44.831 25.9668 44.2769 27.3693ZM42.4391 26.6432C42.6047 26.2241 42.7342 25.8373 42.8277 25.4828C42.9243 25.1203 42.9777 24.7966 42.9877 24.5117C42.9978 24.2268 42.9533 23.9856 42.8543 23.788C42.7553 23.5905 42.5929 23.4472 42.3672 23.358C42.1415 23.2688 41.9251 23.2625 41.7178 23.339C41.5186 23.4187 41.3212 23.5644 41.1258 23.7761C40.9384 23.9909 40.7561 24.2637 40.5788 24.5943C40.4048 24.917 40.235 25.2878 40.0694 25.707C39.9038 26.1261 39.7727 26.517 39.676 26.8795C39.5794 27.242 39.5261 27.5657 39.516 27.8506C39.514 28.1387 39.5585 28.3799 39.6494 28.5743C39.7485 28.7718 39.9108 28.9151 40.1365 29.0043C40.3622 29.0935 40.5787 29.0998 40.786 29.0233C40.9932 28.9467 41.1906 28.8011 41.378 28.5862C41.5653 28.3714 41.7477 28.0986 41.9249 27.7679C42.1021 27.4373 42.2735 27.0624 42.4391 26.6432ZM51.5114 30.2275C50.9541 31.6381 50.2558 32.6155 49.4164 33.1598C48.5883 33.6993 47.7027 33.7827 46.7596 33.4101C45.8165 33.0375 45.2231 32.3697 44.9792 31.4068C44.7465 30.4389 44.9088 29.2497 45.4661 27.8391C45.7432 27.1379 46.0569 26.5443 46.4073 26.0584C46.7657 25.5757 47.1512 25.2014 47.5637 24.9358C47.9762 24.6701 48.406 24.5137 48.8532 24.4668C49.3004 24.4198 49.7537 24.4871 50.2132 24.6686C51.1563 25.0412 51.7441 25.7114 51.9768 26.6793C52.2206 27.6422 52.0655 28.825 51.5114 30.2275ZM49.6737 29.5014C49.8393 29.0823 49.9688 28.6955 50.0622 28.341C50.1589 27.9785 50.2122 27.6548 50.2223 27.3699C50.2323 27.085 50.1878 26.8438 50.0888 26.6463C49.9898 26.4487 49.8275 26.3054 49.6018 26.2162C49.3761 26.127 49.1596 26.1207 48.9523 26.1972C48.7531 26.2769 48.5557 26.4226 48.3603 26.6343C48.1729 26.8491 47.9906 27.1219 47.8134 27.4526C47.6393 27.7752 47.4695 28.1461 47.3039 28.5652C47.1383 28.9843 47.0072 29.3752 46.9106 29.7377C46.8139 30.1002 46.7606 30.4239 46.7505 30.7088C46.7485 30.9969 46.793 31.2381 46.884 31.4325C46.983 31.63 47.1453 31.7734 47.371 31.8625C47.5967 31.9517 47.8132 31.958 48.0205 31.8815C48.2278 31.805 48.4251 31.6593 48.6125 31.4444C48.7999 31.2296 48.9822 30.9568 49.1594 30.6262C49.3367 30.2955 49.5081 29.9206 49.6737 29.5014ZM55.0403 36.486L53.2147 35.7647L55.0871 31.0252L52.7416 30.0985L53.3434 28.5751L59.8603 31.1497L59.2584 32.6731L56.9128 31.7465L55.0403 36.486ZM54.2797 26.2053L60.7965 28.78L60.1946 30.3034L53.6778 27.7287L54.2797 26.2053Z" fill="white"/>
<path d="M10 12L65 35.6894" stroke="#FF0000"/>
</svg>
